<svg width="293" height="165" viewBox="0 0 293 165" fill="none" xmlns="http://www.w3.org/2000/svg">
<g clip-path="url(#clip0_1_2)">
<path d="M184.941 50.7986L271.941 25.2083L208.747 59.8583L184.941 50.7986Z" fill="#E1E6EC"/>
<path d="M271.941 25.2083L208.747 59.8583L218.895 81.5069L271.941 25.2083Z" fill="#A7A7A7"/>
<path d="M271.941 25.2083L221.566 64.3958L241.817 92.2319L271.941 25.2083Z" fill="#E1E6EC"/>
<path d="M218.895 81.5069L221.566 64.3958L227.426 72.4472L218.895 81.5069Z" fill="#E1E6EC"/>
<path d="M212.196 85.1583C212.196 85.1583 211.815 85.5403 211.097 86.2125" stroke="#2F2E41" stroke-width="10" stroke-miterlimit="10"/>
<path d="M208.808 88.275C199.255 96.6931 171.054 118.785 145.264 112.124C113.599 103.965 119.886 70.0792 138.58 70.1403C157.274 70.2014 168.704 102.819 158.632 124.361C148.56 145.903 117.429 161.486 74.3793 150.486C39.3872 141.549 10.4382 104.699 3.14368 94.7375" stroke="#2F2E41" stroke-width="10" stroke-miterlimit="10" stroke-dasharray="20.13 20.13"/>
<path d="M2.24326 93.4847C1.66336 92.675 1.37341 92.2319 1.37341 92.2319" stroke="#2F2E41" stroke-width="10" stroke-miterlimit="10"/>
</g>
<defs>
<clipPath id="clip0_1_2">
<rect width="293" height="165" fill="white"/>
</clipPath>
</defs>
</svg>
